<svg width="1920" height="1080" viewBox="0 0 1920 1080" fill="none" xmlns="http://www.w3.org/2000/svg">
<g clip-path="url(#clip0_28_4)">
<path d="M1920 0H0V1080H1920V0Z" fill="#001220"/>
<path d="M0 738.311L24.6 734.311C49.4 730.311 98.6 722.311 148 724.311C197.4 726.311 246.6 738.311 296 723.311C345.4 708.311 394.6 666.311 443.6 646.711C492.6 626.911 541.4 629.711 590.4 647.711C639.4 665.711 688.6 698.911 738 708.311C787.4 717.711 836.6 702.911 886 705.311C935.4 707.711 984.6 726.911 1034 724.711C1083.4 722.311 1132.6 698.311 1182 684.311C1231.4 670.311 1280.6 666.311 1329.6 678.911C1378.6 691.711 1427.4 720.911 1476.4 714.911C1525.4 708.911 1574.6 667.711 1624 662.711C1673.4 657.711 1722.6 688.911 1772 699.311C1821.4 709.711 1870.6 698.911 1895.4 693.711L1920 688.311V1080.31H1895.4C1870.6 1080.31 1821.4 1080.31 1772 1080.31C1722.6 1080.31 1673.4 1080.31 1624 1080.31C1574.6 1080.31 1525.4 1080.31 1476.4 1080.31C1427.4 1080.31 1378.6 1080.31 1329.6 1080.31C1280.6 1080.31 1231.4 1080.31 1182 1080.31C1132.6 1080.31 1083.4 1080.31 1034 1080.31C984.6 1080.31 935.4 1080.31 886 1080.31C836.6 1080.31 787.4 1080.31 738 1080.31C688.6 1080.31 639.4 1080.31 590.4 1080.31C541.4 1080.31 492.6 1080.31 443.6 1080.31C394.6 1080.31 345.4 1080.31 296 1080.31C246.6 1080.31 197.4 1080.31 148 1080.31C98.6 1080.31 49.4 1080.31 24.6 1080.31H0V738.311Z" fill="#FA7268"/>
<path d="M0 810.311L24.6 810.711C49.4 810.911 98.6 811.711 148 795.311C197.4 778.911 246.6 745.711 296 741.311C345.4 736.911 394.6 761.711 443.6 773.711C492.6 785.711 541.4 784.911 590.4 775.711C639.4 766.311 688.6 748.311 738 739.311C787.4 730.311 836.6 730.311 886 736.311C935.4 742.311 984.6 754.311 1034 766.711C1083.4 778.911 1132.6 791.711 1182 793.711C1231.4 795.711 1280.6 786.911 1329.6 798.311C1378.6 809.711 1427.4 840.911 1476.4 842.911C1525.4 844.911 1574.6 817.711 1624 790.711C1673.4 763.711 1722.6 736.911 1772 724.911C1821.4 712.911 1870.6 715.711 1895.4 716.911L1920 718.311V1080.31H1895.4C1870.6 1080.31 1821.4 1080.31 1772 1080.31C1722.6 1080.31 1673.4 1080.31 1624 1080.31C1574.6 1080.31 1525.4 1080.31 1476.4 1080.31C1427.4 1080.31 1378.6 1080.31 1329.6 1080.31C1280.6 1080.31 1231.4 1080.31 1182 1080.31C1132.6 1080.31 1083.4 1080.31 1034 1080.31C984.6 1080.31 935.4 1080.31 886 1080.31C836.6 1080.31 787.4 1080.31 738 1080.31C688.6 1080.31 639.4 1080.31 590.4 1080.31C541.4 1080.31 492.6 1080.31 443.6 1080.31C394.6 1080.31 345.4 1080.31 296 1080.31C246.6 1080.31 197.4 1080.31 148 1080.31C98.6 1080.31 49.4 1080.31 24.6 1080.31H0V810.311Z" fill="#EF5F67"/>
<path d="M0 922.311L24.6 903.911C49.4 885.711 98.6 848.911 148 831.911C197.4 814.911 246.6 817.711 296 829.711C345.4 841.711 394.6 862.911 443.6 862.711C492.6 862.311 541.4 840.311 590.4 828.711C639.4 816.911 688.6 815.711 738 833.711C787.4 851.711 836.6 888.911 886 901.911C935.4 914.911 984.6 903.711 1034 883.311C1083.4 862.911 1132.6 833.711 1182 829.911C1231.4 826.311 1280.6 848.311 1329.6 847.711C1378.6 846.911 1427.4 823.711 1476.4 821.911C1525.4 820.311 1574.6 840.311 1624 861.911C1673.4 883.711 1722.6 906.911 1772 916.711C1821.4 926.311 1870.6 922.311 1895.4 920.311L1920 918.311V1080.31H1895.4C1870.6 1080.31 1821.4 1080.31 1772 1080.31C1722.6 1080.31 1673.4 1080.31 1624 1080.31C1574.6 1080.31 1525.4 1080.31 1476.4 1080.31C1427.4 1080.31 1378.6 1080.31 1329.6 1080.31C1280.6 1080.31 1231.4 1080.31 1182 1080.31C1132.6 1080.31 1083.4 1080.31 1034 1080.31C984.6 1080.31 935.4 1080.31 886 1080.31C836.6 1080.31 787.4 1080.31 738 1080.31C688.6 1080.31 639.4 1080.31 590.4 1080.31C541.4 1080.31 492.6 1080.31 443.6 1080.31C394.6 1080.31 345.4 1080.31 296 1080.31C246.6 1080.31 197.4 1080.31 148 1080.31C98.6 1080.31 49.4 1080.31 24.6 1080.31H0V922.311Z" fill="#E34C67"/>
<path d="M0 924.311L24.6 931.311C49.4 938.311 98.6 952.311 148 946.711C197.4 940.911 246.6 915.711 296 904.311C345.4 892.911 394.6 895.711 443.6 903.711C492.6 911.711 541.4 924.911 590.4 934.311C639.4 943.711 688.6 948.911 738 940.711C787.4 932.311 836.6 910.311 886 914.311C935.4 918.311 984.6 948.311 1034 963.311C1083.4 978.311 1132.6 978.311 1182 957.311C1231.4 936.311 1280.6 894.311 1329.6 881.311C1378.6 868.311 1427.4 884.311 1476.4 893.711C1525.4 902.911 1574.6 905.711 1624 907.711C1673.4 909.711 1722.6 910.911 1772 902.311C1821.4 893.711 1870.6 874.911 1895.4 865.711L1920 856.311V1080.31H1895.4C1870.6 1080.31 1821.4 1080.31 1772 1080.31C1722.6 1080.31 1673.4 1080.31 1624 1080.31C1574.6 1080.31 1525.4 1080.31 1476.4 1080.31C1427.4 1080.31 1378.6 1080.31 1329.6 1080.31C1280.6 1080.31 1231.4 1080.31 1182 1080.31C1132.6 1080.31 1083.4 1080.31 1034 1080.31C984.6 1080.31 935.4 1080.31 886 1080.31C836.6 1080.31 787.4 1080.31 738 1080.31C688.6 1080.31 639.4 1080.31 590.4 1080.31C541.4 1080.31 492.6 1080.31 443.6 1080.31C394.6 1080.31 345.4 1080.31 296 1080.31C246.6 1080.31 197.4 1080.31 148 1080.31C98.6 1080.31 49.4 1080.31 24.6 1080.31H0V924.311Z" fill="#D53867"/>
<path d="M0 1022.31L24.6 1017.31C49.4 1012.31 98.6 1002.31 148 989.311C197.4 976.311 246.6 960.311 296 966.911C345.4 973.711 394.6 1002.91 443.6 1005.71C492.6 1008.31 541.4 984.311 590.4 973.911C639.4 963.711 688.6 966.911 738 973.711C787.4 980.311 836.6 990.311 886 986.711C935.4 982.911 984.6 965.711 1034 971.711C1083.4 977.711 1132.6 1006.91 1182 1020.71C1231.4 1034.31 1280.6 1032.31 1329.6 1019.31C1378.6 1006.31 1427.4 982.311 1476.4 966.311C1525.4 950.311 1574.6 942.311 1624 943.711C1673.4 944.911 1722.6 955.711 1772 970.911C1821.4 986.311 1870.6 1006.31 1895.4 1016.31L1920 1026.31V1080.31H1895.4C1870.6 1080.31 1821.4 1080.31 1772 1080.31C1722.6 1080.31 1673.4 1080.31 1624 1080.31C1574.6 1080.31 1525.4 1080.31 1476.4 1080.31C1427.4 1080.31 1378.6 1080.31 1329.6 1080.31C1280.6 1080.31 1231.4 1080.31 1182 1080.31C1132.6 1080.31 1083.4 1080.31 1034 1080.31C984.6 1080.31 935.4 1080.31 886 1080.31C836.6 1080.31 787.4 1080.31 738 1080.31C688.6 1080.31 639.4 1080.31 590.4 1080.31C541.4 1080.31 492.6 1080.31 443.6 1080.31C394.6 1080.31 345.4 1080.31 296 1080.31C246.6 1080.31 197.4 1080.31 148 1080.31C98.6 1080.31 49.4 1080.31 24.6 1080.31H0V1022.31Z" fill="#C62368"/>
</g>
<defs>
<clipPath id="clip0_28_4">
<rect width="1920" height="1080" fill="white"/>
</clipPath>
</defs>
</svg>
